<svg xmlns="http://www.w3.org/2000/svg" viewBox="0 0 280 300" fill="none">
  <rect x="72" y="40" width="136" height="220" rx="24" fill="#fff8f2" stroke="#2c2419" stroke-width="3"/>
  <rect x="88" y="60" width="104" height="120" rx="12" fill="#f5d5c8" stroke="#2c2419" stroke-width="2"/>
  <circle cx="140" cy="108" r="28" fill="#fff8f2" stroke="#2c2419" stroke-width="2"/>
  <circle cx="132" cy="104" r="3" fill="#2c2419"/>
  <circle cx="148" cy="104" r="3" fill="#2c2419"/>
  <path d="M134 114q6 5 12 0" stroke="#2c2419" stroke-width="2" stroke-linecap="round" fill="none"/>
  <path d="M100 76l8-12 12 6 10-14" fill="#f5c878" stroke="#2c2419" stroke-width="1.5" stroke-linejoin="round"/>
  <path d="M168 72l6 10 12-6" fill="#f5c878" stroke="#2c2419" stroke-width="1.5" stroke-linejoin="round"/>
  <path d="M96 200h88" stroke="#e8b4a2" stroke-width="3" stroke-linecap="round"/>
  <path d="M108 212h64" stroke="#efe8dc" stroke-width="3" stroke-linecap="round"/>
  <circle cx="52" cy="200" r="20" fill="#d4e8f5" stroke="#2c2419" stroke-width="2"/>
  <path d="M46 200h12M52 194v12" stroke="#6a9ec4" stroke-width="2" stroke-linecap="round"/>
  <text x="34" y="236" font-family="sans-serif" font-size="12" fill="#7a6f62" font-weight="600">SNS</text>
  <path d="M228 120l14 8v24l-14 8-14-8v-24z" fill="#efe8dc" stroke="#2c2419" stroke-width="2" opacity="0.9"/>
  <path d="M234 132h8M230 140h16M230 148h12" stroke="#c97b63" stroke-width="2" stroke-linecap="round"/>
</svg>
