<svg xmlns="http://www.w3.org/2000/svg" viewBox="0 0 300 300" fill="none">
  <!-- ?? side -->
  <path d="M20 200c16-52 56-82 88-82s72 30 88 82" fill="#efe8dc" stroke="#2c2419" stroke-width="2.5"/>
  <path d="M36 88c0-18 14-32 32-32" stroke="#9ab8e8" stroke-width="3" stroke-linecap="round" fill="none" opacity="0.7"/>
  <path d="M52 60l10 10 14-10" fill="#f5c878" stroke="#2c2419" stroke-width="2" stroke-linejoin="round"/>
  <circle cx="88" cy="130" r="44" fill="#fff8f2" stroke="#2c2419" stroke-width="3"/>
  <circle cx="76" cy="124" r="4" fill="#2c2419"/>
  <circle cx="100" cy="124" r="4" fill="#2c2419"/>
  <path d="M78 138q10 8 20 0" stroke="#2c2419" stroke-width="2.5" stroke-linecap="round" fill="none"/>
  <path d="M68 108l-8-14M108 108l8-14" stroke="#f5c878" stroke-width="3" stroke-linecap="round"/>
  <text x="62" y="248" font-family="sans-serif" font-size="16" fill="#7a6f62" font-weight="600">??</text>

  <!-- ?? side -->
  <path d="M160 200c16-52 56-82 88-82s72 30 88 82" fill="#f5d5c8" stroke="#2c2419" stroke-width="2.5"/>
  <path d="M228 168l18 10v28l-18 10-18-10v-28z" fill="#f5d5c8" stroke="#2c2419" stroke-width="2"/>
  <path d="M234 182h8M230 190h16" stroke="#c97b63" stroke-width="2" stroke-linecap="round"/>
  <path d="M248 92c0-18-14-32-32-32" stroke="#9ab8e8" stroke-width="3" stroke-linecap="round" fill="none" opacity="0.35"/>
  <circle cx="228" cy="130" r="44" fill="#fff8f2" stroke="#2c2419" stroke-width="3"/>
  <circle cx="216" cy="126" r="4" fill="#2c2419"/>
  <circle cx="240" cy="126" r="4" fill="#2c2419"/>
  <path d="M218 142q10-2 20 2" stroke="#2c2419" stroke-width="2.5" stroke-linecap="round" fill="none"/>
  <path d="M210 108l-6 10M246 108l6 10" stroke="#c97b63" stroke-width="3" stroke-linecap="round"/>
  <path d="M206 156l6-12 6 8 6-14 6 10" stroke="#c97b63" stroke-width="2.5" stroke-linecap="round" stroke-linejoin="round" fill="none" opacity="0.8"/>
  <text x="202" y="248" font-family="sans-serif" font-size="16" fill="#7a6f62" font-weight="600">??</text>

  <!-- divider -->
  <path d="M150 72v176" stroke="#c97b63" stroke-width="3" stroke-linecap="round" opacity="0.45"/>
  <ellipse cx="150" cy="200" rx="118" ry="24" fill="#e8b4a2" opacity="0.35"/>
</svg>
